<?xml version="1.0" encoding="utf-8"?><!-- Uploaded to: SVG Repo, www.svgrepo.com, Generator: SVG Repo Mixer Tools -->
<svg width="800px" height="800px" viewBox="0 0 24 24" fill="none" xmlns="http://www.w3.org/2000/svg">
<path d="M13 5H9.32843C8.79799 5 8.28929 5.21071 7.91421 5.58579L7.08579 6.41421C6.71071 6.78929 6.20201 7 5.67157 7H4C2.89543 7 2 7.89543 2 9L2 19C2 20.1046 2.89543 21 4 21H18C19.1046 21 20 20.1046 20 19V12M17 5H23M20 8V2M11 18C13.2091 18 15 16.2091 15 14C15 11.7909 13.2091 10 11 10C8.79086 10 7 11.7909 7 14C7 16.2091 8.79086 18 11 18Z" stroke="#000000" stroke-width="2" stroke-linecap="round" stroke-linejoin="round"/>
</svg>